<svg id="3dd73fc9-69a9-4be3-978e-ac6b77198582" data-name="Layer 1" xmlns="http://www.w3.org/2000/svg" viewBox="0 0 521.85 688.52">
  <defs>
    <style>
      .e35b1ce0-0541-4a50-9e79-173087c8c010 {
        font-size: 12px;
        fill: #231f20;
        font-family: Myriad Pro;
      }

      .\39 029c5a4-457e-4890-9601-345365f462c8 {
        letter-spacing: 33px;
      }
    </style>
  </defs>
  <title>TylerCrossePlainResume</title>
  <text class="e35b1ce0-0541-4a50-9e79-173087c8c010" transform="translate(0.54 10.04)">T<tspan x="5.48" y="0">yler </tspan><tspan x="26.45" y="0">C</tspan><tspan x="33.37" y="0">r</tspan><tspan x="37.18" y="0">osse</tspan><tspan x="0" y="14.4">703 966 5788</tspan><tspan x="0" y="28.8">t</tspan><tspan x="4.08" y="28.8">ylers</tspan><tspan x="27.25" y="28.8">c</tspan><tspan x="32.55" y="28.8">ot</tspan><tspan x="43.12" y="28.8">t</tspan><tspan x="47.01" y="28.8">c</tspan><tspan x="52.39" y="28.8">r</tspan><tspan x="56.19" y="28.8">osse@</tspan><tspan x="87.14" y="28.8">g</tspan><tspan x="93.78" y="28.8">mai</tspan><tspan x="112.38" y="28.8">l</tspan><tspan x="115.09" y="28.8">.</tspan><tspan x="117.57" y="28.8">c</tspan><tspan x="122.88" y="28.8">om</tspan><tspan x="0" y="57.6">BIOG</tspan><tspan x="25.39" y="57.6">R</tspan><tspan x="31.91" y="57.6">AP</tspan><tspan x="45.64" y="57.6">H</tspan><tspan x="53.38" y="57.6">Y</tspan><tspan x="0" y="72">I l</tspan><tspan x="8.24" y="72">o</tspan><tspan x="14.75" y="72">v</tspan><tspan x="20.4" y="72">e lea</tspan><tspan x="43.58" y="72">r</tspan><tspan x="47.56" y="72">nin</tspan><tspan x="63.68" y="72">g</tspan><tspan x="70.21" y="72">, and </tspan><tspan x="96.99" y="72">t</tspan><tspan x="100.9" y="72">eaching wh</tspan><tspan x="158.94" y="72">a</tspan><tspan x="164.68" y="72">t I al</tspan><tspan x="185.22" y="72">r</tspan><tspan x="189.02" y="72">eady </tspan><tspan x="215.78" y="72">k</tspan><tspan x="221.61" y="72">n</tspan><tspan x="228.27" y="72">o</tspan><tspan x="234.78" y="72">w</tspan><tspan x="243.14" y="72">. IÕm a </tspan><tspan x="280.19" y="72">r</tspan><tspan x="283.99" y="72">esou</tspan><tspan x="307.95" y="72">r</tspan><tspan x="311.76" y="72">c</tspan><tspan x="317.06" y="72">eful </tspan><tspan x="338.57" y="72">w</tspan><tspan x="347.28" y="72">eb de</tspan><tspan x="375.44" y="72">v</tspan><tspan x="381.09" y="72">eloper </tspan><tspan x="415.83" y="72">e</tspan><tspan x="421.81" y="72">x</tspan><tspan x="427.18" y="72">ci</tspan><tspan x="435.37" y="72">t</tspan><tspan x="439.27" y="72">ed </tspan><tspan x="454.59" y="72">b</tspan><tspan x="461.33" y="72">y building </tspan><tspan x="0" y="86.4">p</tspan><tspan x="6.83" y="86.4">r</tspan><tspan x="10.69" y="86.4">a</tspan><tspan x="16.48" y="86.4">g</tspan><tspan x="23.11" y="86.4">m</tspan><tspan x="33.12" y="86.4">a</tspan><tspan x="38.86" y="86.4">tic </tspan><tspan x="53.56" y="86.4">f</tspan><tspan x="56.9" y="86.4">e</tspan><tspan x="62.92" y="86.4">a</tspan><tspan x="68.65" y="86.4">tu</tspan><tspan x="79.23" y="86.4">r</tspan><tspan x="83.04" y="86.4">es th</tspan><tspan x="106.98" y="86.4">a</tspan><tspan x="112.71" y="86.4">t en</tspan><tspan x="131.9" y="86.4">r</tspan><tspan x="135.87" y="86.4">ich and st</tspan><tspan x="183.74" y="86.4">r</tspan><tspan x="187.55" y="86.4">eamline user </tspan><tspan x="254.05" y="86.4">e</tspan><tspan x="260.02" y="86.4">xpe</tspan><tspan x="278.42" y="86.4">r</tspan><tspan x="282.39" y="86.4">ien</tspan><tspan x="297.87" y="86.4">c</tspan><tspan x="303.17" y="86.4">e</tspan><tspan x="309.04" y="86.4">.</tspan><tspan x="311.53" y="86.4"> </tspan><tspan x="313.64" y="86.4">W</tspan><tspan x="323.73" y="86.4">hen IÕm not </tspan><tspan x="389.06" y="86.4">a</tspan><tspan x="394.79" y="86.4">t</tspan><tspan x="398.77" y="86.4">t</tspan><tspan x="402.67" y="86.4">ending hac</tspan><tspan x="458.64" y="86.4">k</tspan><tspan x="464.49" y="86.4">a</tspan><tspan x="470.22" y="86.4">thons or </tspan><tspan x="0" y="100.8">t</tspan><tspan x="3.9" y="100.8">eaching other </tspan><tspan x="76.15" y="100.8">c</tspan><tspan x="81.45" y="100.8">ommuni</tspan><tspan x="124.14" y="100.8">t</tspan><tspan x="128.22" y="100.8">y members h</tspan><tspan x="193.16" y="100.8">o</tspan><tspan x="199.66" y="100.8">w </tspan><tspan x="211.04" y="100.8">t</tspan><tspan x="214.94" y="100.8">o </tspan><tspan x="224.07" y="100.8">c</tspan><tspan x="229.38" y="100.8">od</tspan><tspan x="242.73" y="100.8">e</tspan><tspan x="248.6" y="100.8">, IÕm on a bik</tspan><tspan x="316.7" y="100.8">e</tspan><tspan x="322.57" y="100.8">, a mou</tspan><tspan x="359.13" y="100.8">n</tspan><tspan x="365.74" y="100.8">tain, an ai</tspan><tspan x="413.57" y="100.8">r</tspan><tspan x="417.54" y="100.8">plan</tspan><tspan x="439.65" y="100.8">e</tspan><tspan x="445.52" y="100.8">, or bu</tspan><tspan x="477.04" y="100.8">r</tspan><tspan x="481.01" y="100.8">ied in a </tspan><tspan x="0" y="115.2">good boo</tspan><tspan x="49.2" y="115.2">k</tspan><tspan x="55" y="115.2">.</tspan><tspan x="0" y="144">SKILLS</tspan><tspan class="9029c5a4-457e-4890-9601-345365f462c8" x="0" y="158.4">	</tspan><tspan x="36" y="158.4">F</tspan><tspan x="41.84" y="158.4">R</tspan><tspan x="48.34" y="158.4">ONT END</tspan><tspan class="9029c5a4-457e-4890-9601-345365f462c8" x="0" y="172.8">	</tspan><tspan x="36" y="172.8">- J</tspan><tspan x="46.67" y="172.8">a</tspan><tspan x="52.36" y="172.8">v</tspan><tspan x="58.08" y="172.8">asc</tspan><tspan x="73.99" y="172.8">r</tspan><tspan x="77.96" y="172.8">ipt | ES6 | unders</tspan><tspan x="160.19" y="172.8">c</tspan><tspan x="165.49" y="172.8">o</tspan><tspan x="172.08" y="172.8">r</tspan><tspan x="175.88" y="172.8">e / lodash | </tspan><tspan x="232.44" y="172.8">A</tspan><tspan x="240.01" y="172.8">J</tspan><tspan x="244.45" y="172.8">A</tspan><tspan x="251.63" y="172.8">X / JSON | </tspan><tspan x="302.16" y="172.8">A</tspan><tspan x="309.46" y="172.8">ngular | </tspan><tspan x="349.94" y="172.8">R</tspan><tspan x="356.44" y="172.8">ea</tspan><tspan x="368.24" y="172.8">c</tspan><tspan x="373.77" y="172.8">t | D3 | SASS | CSS | HTML | </tspan><tspan x="0" y="187.2">j</tspan><tspan x="2.92" y="187.2">Q</tspan><tspan x="11.22" y="187.2">ue</tspan><tspan x="23.84" y="187.2">r</tspan><tspan x="28.07" y="187.2">y | </tspan><tspan x="41.68" y="187.2">B</tspan><tspan x="48.23" y="187.2">ootst</tspan><tspan x="74.1" y="187.2">r</tspan><tspan x="77.96" y="187.2">ap | Gulp |</tspan><tspan x="127.97" y="187.2"> </tspan><tspan x="130.08" y="187.2">W</tspan><tspan x="139.83" y="187.2">ebpack | Rspec | Jasmine | </tspan><tspan x="270.04" y="187.2">C</tspan><tspan x="276.92" y="187.2">a</tspan><tspan x="282.7" y="187.2">p</tspan><tspan x="289.45" y="187.2">yba</tspan><tspan x="307.71" y="187.2">r</tspan><tspan x="311.58" y="187.2">a</tspan><tspan class="9029c5a4-457e-4890-9601-345365f462c8" x="0" y="216">	</tspan><tspan x="36" y="216">B</tspan><tspan x="42.5" y="216">A</tspan><tspan x="49.67" y="216">CK END</tspan><tspan class="9029c5a4-457e-4890-9601-345365f462c8" x="0" y="230.4">	</tspan><tspan x="36" y="230.4">- Node | Exp</tspan><tspan x="95.74" y="230.4">r</tspan><tspan x="99.54" y="230.4">ess | Ru</tspan><tspan x="136.08" y="230.4">b</tspan><tspan x="142.82" y="230.4">y | </tspan><tspan x="156.43" y="230.4">R</tspan><tspan x="163.03" y="230.4">ails | Sin</tspan><tspan x="202.55" y="230.4">a</tspan><tspan x="208.28" y="230.4">t</tspan><tspan x="212.25" y="230.4">r</tspan><tspan x="216.12" y="230.4">a | SQL | </tspan><tspan x="257.66" y="230.4">P</tspan><tspan x="263.75" y="230.4">os</tspan><tspan x="275.09" y="230.4">tg</tspan><tspan x="285.62" y="230.4">r</tspan><tspan x="289.43" y="230.4">eSQL | </tspan><tspan x="323.24" y="230.4">A</tspan><tspan x="330.44" y="230.4">c</tspan><tspan x="335.97" y="230.4">ti</tspan><tspan x="342.75" y="230.4">v</tspan><tspan x="348.4" y="230.4">e</tspan><tspan x="354.42" y="230.4">R</tspan><tspan x="360.92" y="230.4">e</tspan><tspan x="366.93" y="230.4">c</tspan><tspan x="372.24" y="230.4">o</tspan><tspan x="378.82" y="230.4">r</tspan><tspan x="382.63" y="230.4">d | </tspan><tspan x="397.35" y="230.4">M</tspan><tspan x="407.07" y="230.4">ongoDB | </tspan><tspan x="456.07" y="230.4">M</tspan><tspan x="465.79" y="230.4">ongoose | </tspan><tspan x="0" y="244.8">A</tspan><tspan x="6.71" y="244.8">WS S3 &amp; EC2 | Di</tspan><tspan x="87.51" y="244.8">g</tspan><tspan x="94.15" y="244.8">ital </tspan><tspan x="112.09" y="244.8">O</tspan><tspan x="120.41" y="244.8">c</tspan><tspan x="125.71" y="244.8">ean</tspan><tspan class="9029c5a4-457e-4890-9601-345365f462c8" x="0" y="273.6">	</tspan><tspan x="36" y="273.6">O</tspan><tspan x="43.97" y="273.6">THER</tspan><tspan class="9029c5a4-457e-4890-9601-345365f462c8" x="0" y="288">	</tspan><tspan x="36" y="288">- OOP |</tspan><tspan x="70.56" y="288"> </tspan><tspan x="72.61" y="288">T</tspan><tspan x="77.72" y="288">es</tspan><tspan x="88.49" y="288">t</tspan><tspan x="92.4" y="288">-D</tspan><tspan x="104.08" y="288">r</tspan><tspan x="108.05" y="288">i</tspan><tspan x="110.86" y="288">v</tspan><tspan x="116.51" y="288">en </tspan><tspan x="131.72" y="288">D</tspan><tspan x="139.76" y="288">e</tspan><tspan x="145.77" y="288">v</tspan><tspan x="151.08" y="288">. | MVC </tspan><tspan x="187.37" y="288">P</tspan><tspan x="193.44" y="288">a</tspan><tspan x="199.17" y="288">t</tspan><tspan x="203.15" y="288">t</tspan><tspan x="207.05" y="288">e</tspan><tspan x="213.06" y="288">r</tspan><tspan x="217.03" y="288">n |</tspan><tspan x="229.1" y="288"> </tspan><tspan x="231.21" y="288">V</tspan><tspan x="237.51" y="288">ersion </tspan><tspan x="270.8" y="288">C</tspan><tspan x="277.63" y="288">o</tspan><tspan x="284.22" y="288">n</tspan><tspan x="290.83" y="288">t</tspan><tspan x="294.8" y="288">r</tspan><tspan x="298.6" y="288">ol | Git / Github | </tspan><tspan x="382.3" y="288">A</tspan><tspan x="389.5" y="288">g</tspan><tspan x="396.14" y="288">ile </tspan><tspan x="410.33" y="288">D</tspan><tspan x="418.38" y="288">e</tspan><tspan x="424.39" y="288">v</tspan><tspan x="430.04" y="288">elopme</tspan><tspan x="468.32" y="288">n</tspan><tspan x="474.93" y="288">t | </tspan><tspan x="486.86" y="288">S</tspan><tspan x="492.85" y="288">crum </tspan><tspan x="0" y="302.4">| API </tspan><tspan x="24.55" y="302.4">I</tspan><tspan x="27.54" y="302.4">n</tspan><tspan x="34.15" y="302.4">t</tspan><tspan x="38.05" y="302.4">e</tspan><tspan x="44.06" y="302.4">g</tspan><tspan x="50.7" y="302.4">r</tspan><tspan x="54.56" y="302.4">a</tspan><tspan x="60.3" y="302.4">tion | </tspan><tspan x="88.28" y="302.4">R</tspan><tspan x="94.79" y="302.4">esponsi</tspan><tspan x="133.19" y="302.4">v</tspan><tspan x="138.84" y="302.4">e </tspan><tspan x="147.39" y="302.4">D</tspan><tspan x="155.43" y="302.4">esi</tspan><tspan x="169.01" y="302.4">g</tspan><tspan x="175.64" y="302.4">n | </tspan><tspan x="190.26" y="302.4">P</tspan><tspan x="196.58" y="302.4">ho</tspan><tspan x="209.83" y="302.4">t</tspan><tspan x="213.73" y="302.4">oshop | </tspan><tspan x="253.1" y="302.4">I</tspan><tspan x="256.09" y="302.4">llust</tspan><tspan x="277.09" y="302.4">r</tspan><tspan x="280.95" y="302.4">a</tspan><tspan x="286.69" y="302.4">t</tspan><tspan x="290.59" y="302.4">or | Ske</tspan><tspan x="326.61" y="302.4">t</tspan><tspan x="330.51" y="302.4">ch | </tspan><tspan x="350.5" y="302.4">A</tspan><tspan x="357.81" y="302.4">r</tspan><tspan x="361.62" y="302.4">duinos 3D </tspan><tspan x="415.04" y="302.4">P</tspan><tspan x="421.23" y="302.4">r</tspan><tspan x="425.2" y="302.4">i</tspan><tspan x="428.01" y="302.4">n</tspan><tspan x="434.62" y="302.4">ting | </tspan><tspan x="462.73" y="302.4">M</tspan><tspan x="472.45" y="302.4">a</tspan><tspan x="478.18" y="302.4">tlab</tspan><tspan x="0" y="331.2">EXPERIENCE</tspan><tspan class="9029c5a4-457e-4890-9601-345365f462c8" x="0" y="345.6">	</tspan><tspan x="36" y="345.6">WEB D</tspan><tspan x="69.1" y="345.6">E</tspan><tspan x="75.11" y="345.6">VE</tspan><tspan x="87.71" y="345.6">L</tspan><tspan x="92.9" y="345.6">O</tspan><tspan x="101.17" y="345.6">P</tspan><tspan x="107.41" y="345.6">MENT IMMERSIVE JUNIOR INSTRU</tspan><tspan x="274.92" y="345.6">C</tspan><tspan x="282.21" y="345.6">T</tspan><tspan x="287.85" y="345.6">OR</tspan><tspan class="9029c5a4-457e-4890-9601-345365f462c8" x="0" y="360">	</tspan><tspan x="36" y="360">G</tspan><tspan x="43.81" y="360">ene</tspan><tspan x="62.5" y="360">r</tspan><tspan x="66.36" y="360">al </tspan><tspan x="77.52" y="360">A</tspan><tspan x="84.79" y="360">ssembly |</tspan><tspan x="131.04" y="360"> </tspan><tspan x="133.15" y="360">W</tspan><tspan x="142.91" y="360">ashing</tspan><tspan x="176.28" y="360">t</tspan><tspan x="180.18" y="360">on DC | 2016</tspan><tspan class="9029c5a4-457e-4890-9601-345365f462c8" x="0" y="374.4">	</tspan><tspan x="36" y="374.4">-</tspan><tspan x="39.68" y="374.4"> </tspan><tspan x="41.74" y="374.4">T</tspan><tspan x="46.93" y="374.4">aug</tspan><tspan x="66.04" y="374.4">h</tspan><tspan x="72.65" y="374.4">t 80+ hours of m</tspan><tspan x="154.89" y="374.4">a</tspan><tspan x="160.63" y="374.4">t</tspan><tspan x="164.53" y="374.4">e</tspan><tspan x="170.54" y="374.4">r</tspan><tspan x="174.51" y="374.4">ial on </tspan><tspan x="204.27" y="374.4">c</tspan><tspan x="209.58" y="374.4">ommon best p</tspan><tspan x="282.91" y="374.4">r</tspan><tspan x="286.77" y="374.4">a</tspan><tspan x="292.55" y="374.4">c</tspan><tspan x="298.09" y="374.4">ti</tspan><tspan x="304.87" y="374.4">c</tspan><tspan x="310.17" y="374.4">es in obje</tspan><tspan x="357.83" y="374.4">c</tspan><tspan x="363.37" y="374.4">t</tspan><tspan x="367.28" y="374.4">-</tspan><tspan x="371.18" y="374.4">o</tspan><tspan x="377.76" y="374.4">r</tspan><tspan x="381.74" y="374.4">ie</tspan><tspan x="390.55" y="374.4">n</tspan><tspan x="397.17" y="374.4">t</tspan><tspan x="401.07" y="374.4">ed p</tspan><tspan x="423.22" y="374.4">r</tspan><tspan x="427.02" y="374.4">o</tspan><tspan x="433.61" y="374.4">g</tspan><tspan x="440.25" y="374.4">r</tspan><tspan x="444.11" y="374.4">ammin</tspan><tspan x="479.38" y="374.4">g</tspan><tspan x="485.91" y="374.4">. MVC </tspan><tspan x="0" y="388.8">f</tspan><tspan x="3.5" y="388.8">r</tspan><tspan x="7.37" y="388.8">ame</tspan><tspan x="29.17" y="388.8">w</tspan><tspan x="37.88" y="388.8">o</tspan><tspan x="44.47" y="388.8">r</tspan><tspan x="48.44" y="388.8">k</tspan><tspan x="54.07" y="388.8">s</tspan><tspan x="58.69" y="388.8">, d</tspan><tspan x="70.49" y="388.8">a</tspan><tspan x="76.22" y="388.8">ta modelin</tspan><tspan x="130.2" y="388.8">g</tspan><tspan x="136.73" y="388.8">, and </tspan><tspan x="163.51" y="388.8">t</tspan><tspan x="167.41" y="388.8">es</tspan><tspan x="178.17" y="388.8">t</tspan><tspan x="182.09" y="388.8">-</tspan><tspan x="185.99" y="388.8">d</tspan><tspan x="192.75" y="388.8">r</tspan><tspan x="196.73" y="388.8">i</tspan><tspan x="199.53" y="388.8">v</tspan><tspan x="205.19" y="388.8">en de</tspan><tspan x="233.18" y="388.8">v</tspan><tspan x="238.83" y="388.8">elopme</tspan><tspan x="277.11" y="388.8">n</tspan><tspan x="283.73" y="388.8">t</tspan><tspan x="287.66" y="388.8">. </tspan><tspan x="292.69" y="388.8">C</tspan><tspan x="299.61" y="388.8">r</tspan><tspan x="303.42" y="388.8">e</tspan><tspan x="309.43" y="388.8">a</tspan><tspan x="315.17" y="388.8">t</tspan><tspan x="319.06" y="388.8">ed o</tspan><tspan x="340.98" y="388.8">r</tspan><tspan x="344.95" y="388.8">i</tspan><tspan x="347.75" y="388.8">g</tspan><tspan x="354.39" y="388.8">inal </tspan><tspan x="375.02" y="388.8">c</tspan><tspan x="380.32" y="388.8">o</tspan><tspan x="386.91" y="388.8">n</tspan><tspan x="393.52" y="388.8">t</tspan><tspan x="397.42" y="388.8">e</tspan><tspan x="403.43" y="388.8">n</tspan><tspan x="410.05" y="388.8">t on new </tspan><tspan x="456.4" y="388.8">t</tspan><tspan x="460.3" y="388.8">opics </tspan><tspan x="0" y="403.2">including ES6, </tspan><tspan x="72.78" y="403.2">w</tspan><tspan x="81.49" y="403.2">ebpac</tspan><tspan x="112.32" y="403.2">k</tspan><tspan x="118.11" y="403.2">, and </tspan><tspan x="144.9" y="403.2">r</tspan><tspan x="148.7" y="403.2">ea</tspan><tspan x="160.5" y="403.2">c</tspan><tspan x="166.03" y="403.2">t</tspan><tspan x="169.96" y="403.2">. </tspan><tspan x="174.99" y="403.2">D</tspan><tspan x="183.03" y="403.2">e</tspan><tspan x="189.04" y="403.2">v</tspan><tspan x="194.7" y="403.2">eloped </tspan><tspan x="232.28" y="403.2">f</tspan><tspan x="235.63" y="403.2">e</tspan><tspan x="241.64" y="403.2">a</tspan><tspan x="247.38" y="403.2">tu</tspan><tspan x="257.96" y="403.2">r</tspan><tspan x="261.76" y="403.2">es and </tspan><tspan x="296.83" y="403.2">t</tspan><tspan x="300.73" y="403.2">ests </tspan><tspan x="322.76" y="403.2">f</tspan><tspan x="326.11" y="403.2">or i</tspan><tspan x="341.97" y="403.2">n</tspan><tspan x="348.58" y="403.2">t</tspan><tspan x="352.48" y="403.2">e</tspan><tspan x="358.49" y="403.2">r</tspan><tspan x="362.46" y="403.2">nal </tspan><tspan x="380.28" y="403.2">t</tspan><tspan x="384.18" y="403.2">ool</tspan><tspan x="400.19" y="403.2">s</tspan><tspan x="404.81" y="403.2">.</tspan><tspan x="0" y="432">WEB D</tspan><tspan x="33.1" y="432">E</tspan><tspan x="39.11" y="432">VE</tspan><tspan x="51.71" y="432">L</tspan><tspan x="56.9" y="432">O</tspan><tspan x="65.17" y="432">P</tspan><tspan x="71.41" y="432">MENT IMMERSIVE STUDENT</tspan><tspan class="9029c5a4-457e-4890-9601-345365f462c8" x="0" y="446.4">	</tspan><tspan x="36" y="446.4">G</tspan><tspan x="43.81" y="446.4">ene</tspan><tspan x="62.5" y="446.4">r</tspan><tspan x="66.36" y="446.4">al </tspan><tspan x="77.52" y="446.4">A</tspan><tspan x="84.79" y="446.4">ssembly |</tspan><tspan x="131.04" y="446.4"> </tspan><tspan x="133.15" y="446.4">W</tspan><tspan x="142.91" y="446.4">ashing</tspan><tspan x="176.28" y="446.4">t</tspan><tspan x="180.18" y="446.4">on DC | 2015</tspan><tspan class="9029c5a4-457e-4890-9601-345365f462c8" x="0" y="460.8">	</tspan><tspan x="36" y="460.8">- </tspan><tspan x="42.23" y="460.8">I</tspan><tspan x="45.22" y="460.8">mmersi</tspan><tspan x="82.73" y="460.8">v</tspan><tspan x="88.38" y="460.8">e full-stack de</tspan><tspan x="157.23" y="460.8">v</tspan><tspan x="162.89" y="460.8">elopme</tspan><tspan x="201.17" y="460.8">n</tspan><tspan x="207.78" y="460.8">t </tspan><tspan x="214.29" y="460.8">c</tspan><tspan x="219.6" y="460.8">ourse </tspan><tspan x="250.03" y="460.8">c</tspan><tspan x="255.33" y="460.8">o</tspan><tspan x="261.84" y="460.8">v</tspan><tspan x="267.49" y="460.8">e</tspan><tspan x="273.5" y="460.8">r</tspan><tspan x="277.47" y="460.8">ing Ru</tspan><tspan x="309.26" y="460.8">b</tspan><tspan x="316" y="460.8">y</tspan><tspan x="321.19" y="460.8">, </tspan><tspan x="326.22" y="460.8">R</tspan><tspan x="332.82" y="460.8">ail</tspan><tspan x="344.24" y="460.8">s</tspan><tspan x="348.86" y="460.8">, Sin</tspan><tspan x="369.27" y="460.8">a</tspan><tspan x="375.01" y="460.8">t</tspan><tspan x="378.98" y="460.8">r</tspan><tspan x="382.84" y="460.8">a, J</tspan><tspan x="398.09" y="460.8">a</tspan><tspan x="403.78" y="460.8">v</tspan><tspan x="409.51" y="460.8">asc</tspan><tspan x="425.42" y="460.8">r</tspan><tspan x="429.39" y="460.8">ip</tspan><tspan x="439.03" y="460.8">t</tspan><tspan x="442.96" y="460.8">, Exp</tspan><tspan x="466.28" y="460.8">r</tspan><tspan x="470.08" y="460.8">es</tspan><tspan x="480.84" y="460.8">s</tspan><tspan x="485.46" y="460.8">, </tspan><tspan x="0" y="475.2">A</tspan><tspan x="7.31" y="475.2">ngula</tspan><tspan x="35.9" y="475.2">r</tspan><tspan x="39.19" y="475.2">, j</tspan><tspan x="47.14" y="475.2">Q</tspan><tspan x="55.44" y="475.2">ue</tspan><tspan x="68.06" y="475.2">r</tspan><tspan x="72.29" y="475.2">y</tspan><tspan x="77.47" y="475.2">, </tspan><tspan x="82.5" y="475.2">P</tspan><tspan x="88.58" y="475.2">os</tspan><tspan x="99.92" y="475.2">tg</tspan><tspan x="110.46" y="475.2">r</tspan><tspan x="114.26" y="475.2">eSQL, and </tspan><tspan x="166.91" y="475.2">M</tspan><tspan x="176.63" y="475.2">ongoD</tspan><tspan x="211.16" y="475.2">B</tspan><tspan x="217.51" y="475.2">. </tspan><tspan x="222.54" y="475.2">D</tspan><tspan x="230.58" y="475.2">e</tspan><tspan x="236.59" y="475.2">v</tspan><tspan x="242.24" y="475.2">eloped a po</tspan><tspan x="301.57" y="475.2">r</tspan><tspan x="305.78" y="475.2">t</tspan><tspan x="309.75" y="475.2">f</tspan><tspan x="313.1" y="475.2">olio of individually </tspan><tspan x="407.74" y="475.2">f</tspan><tspan x="411.09" y="475.2">ocused and </tspan><tspan x="471.5" y="475.2">c</tspan><tspan x="476.8" y="475.2">ollabo</tspan><tspan x="508.25" y="475.2">-</tspan><tspan x="0" y="489.6">r</tspan><tspan x="3.86" y="489.6">a</tspan><tspan x="9.6" y="489.6">ti</tspan><tspan x="16.38" y="489.6">v</tspan><tspan x="22.03" y="489.6">ely </tspan><tspan x="39.07" y="489.6">f</tspan><tspan x="42.42" y="489.6">ocused p</tspan><tspan x="87.9" y="489.6">r</tspan><tspan x="91.7" y="489.6">oje</tspan><tspan x="107.22" y="489.6">c</tspan><tspan x="112.75" y="489.6">t</tspan><tspan x="116.72" y="489.6">s</tspan><tspan x="121.34" y="489.6">.</tspan><tspan x="0" y="518.4">C</tspan><tspan x="6.96" y="518.4">R</tspan><tspan x="13.45" y="518.4">OSS </tspan><tspan x="36.1" y="518.4">C</tspan><tspan x="42.8" y="518.4">OUNT</tspan><tspan x="72.7" y="518.4">R</tspan><tspan x="79.02" y="518.4">Y </tspan><tspan x="88.06" y="518.4">C</tspan><tspan x="95.05" y="518.4">Y</tspan><tspan x="101.11" y="518.4">CLING</tspan><tspan x="132.25" y="518.4"> </tspan><tspan x="134.3" y="518.4">TRIP </tspan><tspan x="158.52" y="518.4">R</tspan><tspan x="165.01" y="518.4">OUTE LEADER</tspan><tspan class="9029c5a4-457e-4890-9601-345365f462c8" x="0" y="532.8">	</tspan><tspan x="36" y="532.8">Bike &amp; Build | </tspan><tspan x="102.78" y="532.8">P</tspan><tspan x="108.97" y="532.8">r</tspan><tspan x="112.77" y="532.8">o</tspan><tspan x="119.28" y="532.8">viden</tspan><tspan x="147.3" y="532.8">c</tspan><tspan x="152.6" y="532.8">e RI - </tspan><tspan x="179.25" y="532.8">S</tspan><tspan x="185.24" y="532.8">e</tspan><tspan x="191.25" y="532.8">a</tspan><tspan x="196.99" y="532.8">ttle</tspan><tspan x="213.78" y="532.8"> </tspan><tspan x="215.89" y="532.8">W</tspan><tspan x="225.36" y="532.8">A | 2014</tspan><tspan class="9029c5a4-457e-4890-9601-345365f462c8" x="0" y="547.2">	</tspan><tspan x="36" y="547.2">- </tspan><tspan x="42.23" y="547.2">C</tspan><tspan x="49.06" y="547.2">o</tspan><tspan x="55.82" y="547.2">-led a </tspan><tspan x="85.99" y="547.2">g</tspan><tspan x="92.63" y="547.2">r</tspan><tspan x="96.43" y="547.2">oup of 29 </tspan><tspan x="146.49" y="547.2">y</tspan><tspan x="152.03" y="547.2">oung adults f</tspan><tspan x="217.91" y="547.2">r</tspan><tspan x="221.71" y="547.2">om </tspan><tspan x="240.85" y="547.2">P</tspan><tspan x="247.04" y="547.2">r</tspan><tspan x="250.84" y="547.2">o</tspan><tspan x="257.35" y="547.2">viden</tspan><tspan x="285.37" y="547.2">c</tspan><tspan x="290.67" y="547.2">e RI </tspan><tspan x="311.1" y="547.2">t</tspan><tspan x="315" y="547.2">o </tspan><tspan x="324.13" y="547.2">S</tspan><tspan x="330.12" y="547.2">e</tspan><tspan x="336.13" y="547.2">a</tspan><tspan x="341.86" y="547.2">ttle</tspan><tspan x="358.65" y="547.2"> </tspan><tspan x="360.76" y="547.2">W</tspan><tspan x="370.23" y="547.2">A on bi</tspan><tspan x="405.55" y="547.2">c</tspan><tspan x="411.14" y="547.2">y</tspan><tspan x="416.67" y="547.2">cle </tspan><tspan x="433.43" y="547.2">f</tspan><tspan x="436.78" y="547.2">or cha</tspan><tspan x="467.66" y="547.2">r</tspan><tspan x="471.63" y="547.2">i</tspan><tspan x="474.44" y="547.2">t</tspan><tspan x="478.52" y="547.2">y</tspan><tspan x="483.7" y="547.2">. </tspan><tspan x="0" y="561.6">P</tspan><tspan x="6.32" y="561.6">lanned lo</tspan><tspan x="53" y="561.6">g</tspan><tspan x="59.64" y="561.6">istics of t</tspan><tspan x="103.26" y="561.6">r</tspan><tspan x="107.23" y="561.6">ip and mai</tspan><tspan x="159.77" y="561.6">n</tspan><tspan x="166.38" y="561.6">tained st</tspan><tspan x="209.65" y="561.6">r</tspan><tspan x="213.45" y="561.6">ong </tspan><tspan x="235.95" y="561.6">t</tspan><tspan x="239.85" y="561.6">eam </tspan><tspan x="264.2" y="561.6">c</tspan><tspan x="269.51" y="561.6">ohesion.</tspan><tspan x="0" y="590.4">EDU</tspan><tspan x="21.66" y="590.4">C</tspan><tspan x="28.67" y="590.4">A</tspan><tspan x="35.09" y="590.4">TION</tspan><tspan class="9029c5a4-457e-4890-9601-345365f462c8" x="0" y="604.8">	</tspan><tspan x="36" y="604.8">B</tspan><tspan x="42.35" y="604.8">.S. BIOMEDI</tspan><tspan x="99.83" y="604.8">C</tspan><tspan x="106.84" y="604.8">AL ENGINEERING</tspan><tspan class="9029c5a4-457e-4890-9601-345365f462c8" x="0" y="619.2">	</tspan><tspan x="36" y="619.2">V</tspan><tspan x="42.5" y="619.2">i</tspan><tspan x="45.31" y="619.2">r</tspan><tspan x="49.14" y="619.2">g</tspan><tspan x="55.78" y="619.2">inia </tspan><tspan x="76.38" y="619.2">C</tspan><tspan x="83.21" y="619.2">ommo</tspan><tspan x="116.4" y="619.2">n</tspan><tspan x="122.9" y="619.2">w</tspan><tspan x="131.62" y="619.2">ealth Uni</tspan><tspan x="176.65" y="619.2">v</tspan><tspan x="182.3" y="619.2">ersi</tspan><tspan x="199.8" y="619.2">t</tspan><tspan x="203.88" y="619.2">y | </tspan><tspan x="217.49" y="619.2">R</tspan><tspan x="224.06" y="619.2">ichmond</tspan><tspan x="268.93" y="619.2"> </tspan><tspan x="271.04" y="619.2">V</tspan><tspan x="277.06" y="619.2">A | 2014</tspan><tspan class="9029c5a4-457e-4890-9601-345365f462c8" x="0" y="633.6">	</tspan><tspan x="36" y="633.6">- </tspan><tspan x="42.23" y="633.6">C</tspan><tspan x="49.06" y="633.6">ourses included: Di</tspan><tspan x="143.9" y="633.6">ff</tspan><tspan x="150.74" y="633.6">e</tspan><tspan x="156.75" y="633.6">r</tspan><tspan x="160.56" y="633.6">e</tspan><tspan x="166.57" y="633.6">n</tspan><tspan x="173.18" y="633.6">tial </tspan><tspan x="191.12" y="633.6">E</tspan><tspan x="196.98" y="633.6">qu</tspan><tspan x="210.35" y="633.6">a</tspan><tspan x="216.08" y="633.6">tion</tspan><tspan x="236.11" y="633.6">s</tspan><tspan x="240.73" y="633.6">, Linear </tspan><tspan x="279.15" y="633.6">A</tspan><tspan x="286.46" y="633.6">lgeb</tspan><tspan x="308.84" y="633.6">r</tspan><tspan x="312.7" y="633.6">a, </tspan><tspan x="323.51" y="633.6">M</tspan><tspan x="333.2" y="633.6">ulti</tspan><tspan x="349.42" y="633.6">v</tspan><tspan x="355.15" y="633.6">a</tspan><tspan x="360.93" y="633.6">r</tspan><tspan x="364.9" y="633.6">i</tspan><tspan x="367.71" y="633.6">a</tspan><tspan x="373.45" y="633.6">t</tspan><tspan x="377.34" y="633.6">e </tspan><tspan x="385.9" y="633.6">C</tspan><tspan x="392.78" y="633.6">al</tspan><tspan x="401.39" y="633.6">c</tspan><tspan x="406.65" y="633.6">, </tspan><tspan x="411.68" y="633.6">A</tspan><tspan x="418.98" y="633.6">pplied </tspan><tspan x="453.6" y="633.6">S</tspan><tspan x="459.48" y="633.6">t</tspan><tspan x="463.46" y="633.6">a</tspan><tspan x="469.19" y="633.6">tistic</tspan><tspan x="492.88" y="633.6">s</tspan><tspan x="497.5" y="633.6">, </tspan><tspan x="0" y="648">Ele</tspan><tspan x="14.75" y="648">c</tspan><tspan x="20.28" y="648">t</tspan><tspan x="24.25" y="648">r</tspan><tspan x="28.22" y="648">ic </tspan><tspan x="38.95" y="648">C</tspan><tspan x="45.88" y="648">i</tspan><tspan x="48.68" y="648">r</tspan><tspan x="52.49" y="648">cuits I-III, </tspan><tspan x="98.74" y="648">C</tspan><tspan x="105.56" y="648">omput</tspan><tspan x="139.57" y="648">a</tspan><tspan x="145.31" y="648">tional </tspan><tspan x="176.49" y="648">M</tspan><tspan x="186.21" y="648">ethods I&amp;II, Si</tspan><tspan x="253.13" y="648">g</tspan><tspan x="259.76" y="648">nal </tspan><tspan x="277.58" y="648">P</tspan><tspan x="283.77" y="648">r</tspan><tspan x="287.58" y="648">o</tspan><tspan x="294.17" y="648">c</tspan><tspan x="299.47" y="648">essin</tspan><tspan x="324.45" y="648">g</tspan><tspan x="330.98" y="648">, &amp; En</tspan><tspan x="358.38" y="648">g</tspan><tspan x="365.01" y="648">inee</tspan><tspan x="386.5" y="648">r</tspan><tspan x="390.47" y="648">ing </tspan><tspan x="409.19" y="648">D</tspan><tspan x="417.23" y="648">esi</tspan><tspan x="430.81" y="648">g</tspan><tspan x="437.44" y="648">n.</tspan></text>
</svg>
